<svg xmlns="http://www.w3.org/2000/svg" xml:space="preserve" preserveAspectRatio="none" style="enable-background:new 0 0 1640 101" viewBox="0 0 1640 101"><path d="m465.7 0-14.5.3-14.5.1-14.6-.2-15.1.5-15.1.2-15.1.6-15.1.8-15.1-.1-15.1-2.3-15.1.2-15.1 1.4-15.2.6L271 1l-15.1.7L240.8 0l-15.1 1.9-15.1-.4-15.2.3L180.3.3l-15.1-.6-15.1.6L135 2.6 120.1 0l-15 1-15.2-1-15 2.6L60 1.9H45.5l-14.9-.3-14.9-.3L.4 0l.2 15.2v11L0 39.6 1.3 63 0 85.6V101l13.5-.1 14.5.1 14.4-.9 14.4-.8 14.5.6 14.4.9 14.5-.2 14.4-.7 14.5.4 14.4-.8 14.4.3 14.4-.7 14.3.8 14.3-.5 14.3-.7 14.4.6 14.3 1.4 14.3-.4 14.3.6h14.4l14.3-.1 14.3-.3 14.4.3 14.3-.6 14.3.4 14.3-1.1 14.4 1.4 14.3-.4 14.3-.4 14.3-.2 14.4.9 14.2-.3 14.4-.3 14.4.8 14.2-.7 14.4.1h14.3l16.2.1 14.3-.7 14.3.9 14.3.3 14.1-1.1 14.3.4 14.3.5 14.8-.3 14.8.5 14.7-.6h14.8l15 .5 14.8.1 14.7-.4 14.8.2 14.7.2 14.8-.7 14.8.4h14.8l14.7.3h14.8l14.7-.8 14.8.2 14.8.5 15.9-.2 13.6-.9h29.5l14.8.3 14.8.3 14.7-.1 14.8.1 14.8-.8 14.4 1.4 14-.2 14.7-1 15.9 1.2 14.8-.8 14.7-.1 14.8.6 14.8.3h14.8l14.7-1.9 14.8-.1 14.7 1.1 14.8-.1 14.8.6 14.7-.1 14.8.2 14.8.3 14.7-.3 14.9.1 14.9.1 14.9-1.1 14.9-.5 14.8 1 14.9-.9 14.9 1 14.9-.9 14.9.2 14.9-.4 14.8 1.4 14.9-.7 14.9.1 14.9.1 14.9-.2 14.8.8 14.9-.8 14.9-.1 14.7-.6 14.7.3 14.6-.3 14.7.9 13.7-1 16.6 2 1-16V73.4l-.3-10.9.3-11.5-.6-9.5.6-14-1-10.8 1-16.7-17 .9-14.2.3-14.2-.9-14.2.1-14.2.1-14.2.5-14.4-.1-14.5-.3-14.4.4h-14.4l-14.4-.6-14.4-.2-14.5.3-13.6 1L1423 1l-14.4-.1-14.4.2-14.5-.8-14.4 1.3-14.4.1-14.5-.3-14.4-.5-14.4.1-14.4-.5-14.5.8-14.5-.3-14.5.9-14.6.2-14.5.2-14.5-.2-14.5.5-14.5-1.3-14.5 1.1-14.6-.5-14.5.3L1119 2l-14.5.8-14.6-.2-14.5-.7h-14.5l-14.5-.2-14.5.4-14.5-.1-14.6.6-14.5-1.1-14.5.3-14.5-.6-14.5-.3-14.5-.2-14.5 1.2-14.6-.1-14.5-.3-14.5-.4-14.5.5-14.5-.7-14.6.7-14.5-.1-14.5-.3h-14.5l-14.6-.1-14.5.1-14.5.1-14.5.1-14.5 1-14.5-.7-14.6.4-14.5.4-14.5-.3-14.5.2-14.5-.8-14.5-.1-14.6.4-14.5-.9-14.5.1-14.5-.6-14.5.3-14.5-.8-14.6.6-14.5.5-14.5-.9z" class="st0"/></svg>