<svg xmlns="http://www.w3.org/2000/svg" xml:space="preserve" preserveAspectRatio="none" viewBox="0 0 328 70"><path fill="#D0021B" d="M325.9 50c-.4 4 .8 8.1-1.1 11.9-.1.1-.1.2-.2.3-.3.1-.6.3-.6.6 0 .2 0 .4-.1.6-.1.1-.1.2-.2.3-.4.2-.6.4-.6.7 0 .2-.3.4-.4.5.7.4-6.6 3.5-7.3 3.8-4 1.5-10.4 1.6-14.7.9-1.3-.2-1.7-.7-3.3-.7h-41.2c-2 0-4.6-1.3-6.3-.3-.1.1-.2.2-.4.2-.3.1-.6.1-1 .1h-1.9c-.3 0-.6 0-.9-.1-.6-.5-1.2-.9-1.8 0-2.1.1-3.8.1-5.5.1-.9-.7-1.7-.8-2.5-.7h-1.6c-.8 0-1.5 0-2 .6-1.6.2-2.7.2-3.8.1-.6-.1-.7-.6-1.3-.6-1.1.1-2.4-.5-3.4.4-1 .3-1.6.2-2.2.2-2.8 0-4.9-1.1-7.7-.5-1.7.3-3.4.8-5.1.6-1.1-.1-2-.5-3.1-.6-.7-.1-1.5 0-2.2.1-5.4.7-10.9.7-16.2.1-.7-.1-1.4-.2-2.2-.1-.5 0-1.1.1-1.6.2-1.7.3-3.4.3-5.1.3-2.8 0-5.6-.1-8.4-.4-1.7-.2-6-1.4-7.1.1-2.6.1-4.8.1-6.9.1h-23.9c-1.9-1-2.6-.2-4.2 0-2 .3-4.5 0-6.5-.5-.3-.1-.6-.2-.9-.1-.4 0-.8.3-1.2.4-.6.2-1.3.2-2 .2h-72c-2 0-3.3.2-5.3.6-.7.1-1.4.1-2.1.1-5.1 0-9.7-.3-14.7-.9-.5-.1-1-.1-1.5-.2-2.3-.3-4.8-.2-7-.5-.9-.7-1.6-.7-2.4-.7-4.4 0-8.9-.7-9-4v-6.1c0-1.1-.8-1.4-.9-2.3-.4-2.3-2-4.9-2-7.1 0-3.3-.7-6.6-.4-9.9.1-1.7.7-3.3.8-5 0-1.3-.4-2.6-.4-3.9v-8.7c0-1.1 0-2.2.1-3.3.2-2 .9-4 1.5-6 1-3.2 2.1-7.8 6.8-9 1.1-.3 2.1-.5 3.3-.6.6-.1 1.2-.1 1.8-.3.3-.1.5-.3.8-.4.3-.1.6-.1 1-.1 3.9 0 8.1-.3 12 0 1 .8 1.9.7 2.7.7 1.5.1 3-.2 4.5.2.5.4 1.1.6 1.8.6 5.6 0 11.1 0 16.8-.3 5.1-.3 10.2-.5 15.3 0 .9.1 1.8.2 2.6.1l1.5-.3c2.1-.4 4.3.5 6.4.7 3.2.3 6.6 0 9.9 0 .9 0 1.8 0 2.7-.1 1-.2 1.9-.5 2.9-.6 1.1-.1 2.3.1 3.4.3 3.5.5 11.3 1.7 14.4-.1 3.9-.2 6.8.6 10.2.6 2.3 0 4.7-.3 7-.6 6.5-.6 13.2-.3 19.7-.3h8.3c1.1.9 1.7.6 2.3.1 4.8-.1 9-.3 13.1.3 4 .6 7.5-.5 11.5-.6 2.7-.1 5.4.6 8.1.8 3.2.2 6.4-.1 9.6-.3 6.4-.5 12.8-.5 19.1 0 .7 0 1.4.1 2.1.1h20.9c5.3 0 10.6-.2 15.8-.2 6.9 0 13.8-.4 20.7-.7 9-.4 18-.7 27-.8h1.1c.9.8 1.7.7 2.5.7h1.7c.6 0 1.2-.1 1.8.1 1.9.4 4 .9 6 1.5.4.1.8.2 1.2.4 1.1.4 1.9 1.2 2.7 1.9.3.3.7.6.8.9.1.3.2.6.2.9l.6 8.1c0 .3.1.7.1 1 .1 1.5.5 3 .5 4.5 0 .4 0 .8.1 1.3 0 .5.7.6.9 1 .3.6.3 1.3.1 1.9-.7 1.4-.7 2.4-1.1 3.9-.1.5-.3.9-.5 1.4-.7 1.5-2.4 3.1-2.2 4.7.2 1.9 2.9 3.1 2.9 4.8 0 2.4-.2 4.7-.5 7-.7 1.3-.9 2.6-1 3.9z"/></svg>