<?xml version="1.0" encoding="utf-8"?>
<svg viewBox="0 0 4539.1587 4539.1772" height="4539.1772" width="4539.1587" id="svg2" version="1.1" xmlns="http://www.w3.org/2000/svg">
  <g transform="matrix(1.3333333,0,0,-1.3333333,-0.40676984,4539.5934)" id="g10">
    <g transform="scale(0.1)" id="g12">
      <g transform="scale(2.08877)" id="g14">
        <path id="path16" style="fill: rgb(216, 35, 42); fill-opacity: 1; fill-rule: nonzero; stroke: none;" d="m 1413.23,1.49423 c 0,0 -1411.76944,0 -1411.76944,1411.77577 V 14888.2 c 0,0 0,1411.8 1411.76944,1411.8 H 14888.2 c 0,0 1411.7,0 1411.7,-1411.8 V 1413.27 c 0,0 0,-1411.77577 -1411.7,-1411.77577 z"/>
      </g>
      <g transform="scale(1.69579)" id="g18">
        <path id="path20" style="fill:#ffc423;fill-opacity:1;fill-rule:nonzero;stroke:none" d="m 12681.3,15031.6 c 1108.9,0 2013.6,-4669.3 2013.6,-10440.27 l 1605.1,-0.07 c 0,6208.84 -1619.7,11242.94 -3618.7,11242.94 -1130.9,0 -2145,-1510.2 -2808.93,-3874.1 -663.92,2363.9 -1670.73,3874.1 -2808.89,3874.1 -1991.76,0 -3611.42,-5034.1 -3611.42,-11242.85 l 1605.08,-0.07 c 0,5771.02 897.38,10440.32 2006.34,10440.32 1108.98,0 2006.35,-4311.8 2006.35,-9637.71 l 1605.07,-0.07 c 0,5325.98 904.7,9637.78 2006.4,9637.78 z"/>
      </g>
      <g transform="scale(1.12196)" id="g22">
        <path id="path24" style="fill: rgb(216, 35, 41); fill-opacity: 1; fill-rule: nonzero; stroke: none;" d="m 14965,13164.7 -86.8,10.8 10.9,282.2 c 0,0 10.8,141.1 -152,141.1 -173.6,0 -575.2,0 -575.2,0 l 173.6,303.9 -716.3,455.8 325.6,10.9 -141.1,390.7 412.4,-65.1 10.9,314.7 390.7,-455.8 -184.5,944.2 336.5,-162.8 195.3,531.8 195.4,-531.8 336.5,162.8 -184.5,-944.2 390.7,455.8 10.8,-314.7 390.7,65.1 -119.3,-390.7 314.7,-10.9 -705.5,-455.8 173.7,-303.9 c 0,0 -369,0 -575.3,0 -195.3,0 -162.7,-141.1 -162.7,-141.1 l 21.7,-282.2 z"/>
      </g>
    </g>
  </g>
</svg>