<svg xmlns="http://www.w3.org/2000/svg" width="108" height="106"><g fill="none" fill-rule="evenodd"><path fill="#D8232A" d="M107.66 93.363c0 6.98-5.762 12.637-12.868 12.637H12.866C5.76 106 0 100.342 0 93.363V12.906C0 5.927 5.76.271 12.866.271h81.926c7.106 0 12.868 5.656 12.868 12.635v80.457"/><path fill="#FFFFFE" d="M11.067 85.572c-1.323-2.24-1.455-4.986-1.455-4.986S9.615 32.682 9.6 32.08v-2.386c.014-.419.039-.81.08-1.13C10.95 18.453 25.833 8.432 53.386 8.432c27.554 0 42.437 10.02 43.708 20.132.19 1.493.067 4.538.067 4.538v47.484s-.13 2.746-1.453 4.986c-4.79 8.111-18.43 11.996-42.322 11.996-23.89 0-37.531-3.885-42.319-11.996Z"/><path fill="#FFFFFE" d="M91.173 93.741c.35 0 .666-.024.666-.453 0-.342-.31-.407-.598-.407h-.564v.86h.496Zm-.496 1.56h-.413v-2.777h1.04c.646 0 .967.243.967.79 0 .497-.309.714-.71.764l.779 1.224h-.467l-.72-1.205h-.476v1.205Zm.53.662c1.07 0 1.918-.854 1.918-2.014 0-1.14-.848-2.001-1.919-2.001-1.083 0-1.93.86-1.93 2 0 1.16.847 2.015 1.93 2.015ZM88.8 93.949c0-1.383 1.103-2.404 2.406-2.404A2.382 2.382 0 0 1 93.6 93.95a2.384 2.384 0 0 1-2.394 2.415 2.388 2.388 0 0 1-2.406-2.415Z"/><path fill="#F6BC25" d="M52.8 95.16c25.5 0 38.413-4.654 40.73-13.542.384-1.625-.884-2.118-2.154-2.118H14.224c-1.27 0-2.538.493-2.154 2.118C14.387 90.506 27.302 95.16 52.8 95.16M52.801 10.84c-25.5 0-39.09 8.843-40.731 17.735-.384 2.042.886 2.743 2.155 2.743H91.376c1.27 0 2.539-.701 2.154-2.743C91.89 19.683 78.3 10.84 52.8 10.84"/><path fill="#D8232A" d="m86.358 40.201-1.604-2.553c-.471-.886-1.978-1.046-2.773-.757-1.042.379-1.543 1.515-1.073 2.4l3.165 5.178c.237.411.343.647.342 1.061v3.74c0 1.052 1.277 1.55 2.153 1.55.874 0 2.15-.498 2.15-1.55v-3.74c0-.414.028-.597.337-1.049l3.172-5.19c.469-.885-.058-1.996-1.075-2.4-.784-.315-2.3-.129-2.771.757l-1.614 2.535c-.131.222-.28.222-.409.018ZM76.19 57.618c-.626.388-.011 1.194.506 1.155.573-.044 2.889-2.026 1.986-4a1.524 1.524 0 0 0-1.387-.893c-.817 0-1.478.62-1.478 1.387.03.947.588 1.227.773 1.297.185.069.134.207.117.295-.117.331-.201.47-.517.76Zm9.03 17.064c-2.72 0-4.334-.514-5.678-1.78-1.053-1.061-.614-2.353-.202-3 .412-.645 1.326-1.641 2.986-.787 1.476.76 1.661.582 2.36.582 1.034 0 1.498-.81 1.498-1.67 0-.858-.749-1.166-1.3-1.292l-1.214-.251c-2.363-.48-4.723-2.312-4.718-5.048.008-4.515 2.755-7.555 7.22-7.555v-.001c2.423 0 3.576.39 4.959 1.778 1.05 1.063.61 2.322.198 2.965-.411.644-1.342 1.677-2.986.784-1.216-.661-1.448-.574-2.012-.574-.89 0-1.351.641-1.351 1.422 0 .707.772 1.055 1.238 1.181l1.369.354c2.56.657 4.786 2.514 4.813 5.742.037 4.154-2.234 7.15-7.18 7.15ZM75.17 58.169l-4.069 5s-.836.868-.182 1.74c.725.963 3.959 4.771 3.959 4.771s2.156 2.063-.062 4.022c-2.214 1.951-3.47.273-3.47.273l-5.267-6.41s-.538-.522-.538.433l.01-.062v4.45c0 1.557-1.694 2.296-2.85 2.296-1.16 0-2.851-.739-2.851-2.296v-16.21c0-1.557 1.692-2.296 2.85-2.296 1.157 0 2.85.739 2.85 2.297v4.401l-.009-.058c0 .545.339.57.574.254l4.74-5.729c1.06-1.366 2.64-1.401 3.926-.298 1.14.977 1.374 2.19.389 3.422ZM20.285 74.682c4.483 0 5.763-2.805 5.763-5.818l.021-.318V56.164c0-1.55-1.727-2.284-2.91-2.284-1.182 0-2.909.734-2.909 2.284v11.662c.126 1.855-1.094 2.332-1.566.96-.672-1.646-2.358-1.285-3.007-.96-.647.324-1.574 1.166-1.185 2.76.686 2.435 2.436 4.07 5.793 4.096Zm15.26-7.954h-1.85c-.172 0-.316-.12-.23-.336l.908-2.989c.095-.434.458-.485.585-.007l.904 2.995c.093.278-.003.337-.318.337Zm2.185 5.047.279.929c.313 1.36 2.108 2.138 3.149 1.95 1.16-.207 2.492-1.52 2.005-3.026l-4.824-15.694c-.445-1.564-2.26-2.019-3.364-2.054-1.103.035-2.935.517-3.366 2.054l-4.822 15.694c-.487 1.507.843 2.819 2.004 3.026 1.041.188 2.836-.59 3.15-1.95l.278-.926c.073-.292.202-.357.448-.357h4.637c.33 0 .358.133.426.354Zm10.71-7.47c0 2.748 1.04 5.202 4.014 5.202.801 0 .904-.105 1.913-.575 1.777-.831 2.725.143 3.16.809.434.664.903 2.01-.21 3.107-1.12 1.155-2.715 1.834-5.146 1.834-5.62 0-9.519-4.26-9.519-10.403 0-6.142 3.9-10.4 9.52-10.4 2.376 0 3.897.548 5.145 1.833 1.113 1.097.644 2.426.21 3.09-.435.665-1.385 1.642-3.16.808-.904-.424-1.077-.576-1.913-.576-2.974 0-4.02 2.521-4.02 5.27h.005Zm-29.26-18.67c-.267 0-.508.095-.508.436v3.196c0 1.053-1.268 1.553-2.136 1.553-.868 0-2.136-.5-2.136-1.553V38.302c0-1.056 1.268-1.554 2.136-1.554.868 0 2.136.498 2.136 1.554v2.93c0 .324.223.45.472.45h2.181c.286 0 .473-.126.473-.45v-2.93c0-1.056 1.268-1.554 2.136-1.554.868 0 2.135.498 2.135 1.554v10.965c0 1.053-1.267 1.553-2.135 1.553-.868 0-2.136-.5-2.136-1.553v-3.196c0-.341-.223-.436-.49-.436H19.18Zm43.742-.125c-1.586 0-1.85-1.084-1.85-1.88 0-.794.34-1.816 1.889-1.816h3.098c1.096 0 1.774.427 1.774 1.478v3.99c0 2.29-2.909 3.538-6.118 3.538-4.144 0-7.394-2.297-7.394-7.38 0-4.313 3.05-7.304 7.436-7.304 2.244 0 3.95.48 5.132 1.515.87.77.504 1.792.164 2.26-.34.465-1.095 1.185-2.468.567-1.372-.619-1.777-.633-2.605-.633-2.325 0-3.137 1.723-3.137 3.653s1.002 3.52 2.758 3.52c1.435 0 1.941-.444 1.888-1.192 0-.285-.132-.316-.567-.316Zm11.304-3.255c.865 0 1.591-.573 1.591-1.518 0-.945-.301-1.541-1.668-1.541-.504 0-.631.099-.788.304V42c0 .268.307.255.865.255Zm3.95 2.397c-.203.148-.179.263-.08.399l2.377 3.04c.62.792.026 1.9-.782 2.4-.728.45-2.286.512-2.908-.279l-3.036-3.868c-.169-.205-.417-.121-.417.147v2.862c0 1.01-1.267 1.445-2.133 1.445-.868 0-2.136-.435-2.136-1.445V38.296c0-1.008 1.109-1.548 2.136-1.548h4.03c3.59 0 4.82 2.72 4.82 4.148 0 1.283-.38 2.755-1.871 3.756ZM33.44 50.209c2.575 0 5.527-1.658 5.527-4.014v-8.6c0-1.018-1.253-1.459-2.11-1.459s-2.11.44-2.11 1.459v7.766c0 .567-.688.892-1.307.892-.621 0-1.307-.325-1.307-.892v-7.766c0-1.018-1.253-1.459-2.112-1.459-.857 0-2.11.44-2.11 1.459v8.6c0 2.356 2.953 4.014 5.529 4.014Zm11.08-5.243V49.2c0 .964-1.282 1.621-2.161 1.621-.878 0-2.164-.52-2.164-1.621V37.84c0-1.1 1.286-1.704 2.164-1.704 1.115 0 1.782.64 2.305 1.34l3.44 4.464c.27.353.664.41.664.096V37.84c0-1.1 1.283-1.704 2.163-1.704.878 0 2.162.604 2.162 1.704v11.359c0 1.095-1.284 1.621-2.162 1.621-.754 0-1.259-.015-2.17-1.171-.909-1.154-3.65-4.683-3.65-4.683-.187-.248-.59-.307-.59 0Z"/></g></svg>