<svg xmlns="http://www.w3.org/2000/svg" width="26" height="27"><g fill="none" fill-rule="evenodd"><path d="M-1582-24H338v1080h-1920z"/><path d="M-2-1h30v30H-2z"/><path stroke="#FFF" stroke-linecap="round" stroke-linejoin="round" stroke-opacity=".4" stroke-width="2" d="M19.563 8.375a6.625 6.625 0 1 1-13.25 0 6.625 6.625 0 0 1 13.25 0ZM18.973 16.858a8.47 8.47 0 0 1-6.035 2.517 8.468 8.468 0 0 1-6.035-2.517c-3.096 1.845-5.153 5.06-5.153 8.727 0 .14.017.276.023.415h22.33c.006-.139.022-.276.022-.415 0-3.667-2.056-6.882-5.152-8.727Z"/></g></svg>